<svg xmlns="http://www.w3.org/2000/svg" viewBox="0 0 4309.5 465.3"><defs><style>.cls-1{fill:#faa919;}.cls-2{fill:#d12656;}</style></defs><g id="Background"><polygon class="cls-1" points="1000 5.67 607.1 5.67 607.1 77.17 740 77.17 740 364.47 867.2 364.47 867.2 77.17 1000 77.17 1000 5.67"/><polygon class="cls-1" points="725.3 292.87 530.8 292.87 530.8 5.57 403.5 5.57 403.5 364.47 725.3 364.47 725.3 292.87"/><path class="cls-1" d="M391.2,303.58c0-34.7-19.4-65.8-49.9-86.1,14.1-16.5,22.3-36.3,22.3-57.6,0-57.6-60.3-104.3-134.8-104.3H0v358.9l261.2-.1C333.4,412.28,391.2,363.58,391.2,303.58ZM210.6,192.78H115.4v-65.6h95.2c23.8,0,43,14.4,43,32.8S234.4,192.78,210.6,192.78Zm-95.2,71.5H227.1c28,0,50.8,17.6,50.8,39.3s-22.7,39.2-50.8,39.2H115.4Z" transform="translate(0 -50.01)"/><path class="cls-1" d="M1072.57,156.29v70.82l114.92,57.95L1072.57,343v71.18L1277.22,311V259.48Zm153,129.31v-.73l.72.37Z" transform="translate(0 -50.01)"/></g><g id="Texts"><path class="cls-1" d="M4309.5,515.31h-257V470.7h257Z" transform="translate(0 -50.01)"/><path class="cls-1" d="M4309.5,515.31h-257V470.7h257Z" transform="translate(0 -50.01)"/><path class="cls-2" d="M1619.62,345q0-15.18-15-23.12t-49.75-14q-34.75-6.06-58-15.41-51-20.55-51-59.56,0-32.7,33.08-54.66t84.09-22q54.38,0,87.87,22.43t33.5,58.16h-68.12q0-16.35-14.57-27.22T1563,198.8q-22.43,0-36.58,8.65t-14.16,23.12q0,13.08,13.18,20.32t53.25,14.6q40.08,7.36,62.93,17.52t33.92,24.41q11.07,14.25,11.07,34.57,0,34.1-33.92,55.24t-88.85,21.14q-37.29,0-66.43-11.21T1452,376.32q-16.26-19.62-16.26-42.27h66.15q1.41,20.08,18.22,30.95t44.57,10.86q26.91,0,40.92-8.53T1619.62,345Z" transform="translate(0 -50.01)"/><path class="cls-2" d="M1912.75,413.7q-4.49-7.24-7.85-23.6-32.52,28.27-79.6,28.27-45.69,0-74.56-21.73t-28.87-53.72q0-40.41,36-62t103-21.61h41.76V242.72q0-19.62-13.17-31.42t-40.09-11.8q-23.26,0-38.12,9.7t-14.85,24.64h-68.11q0-20.79,16.53-38.89t45-28.38q28.46-10.27,63.49-10.28,53.25,0,84.93,22.31t32.51,62.71v114q0,34.11,11.49,54.43v4Zm-74.84-40.88a89.76,89.76,0,0,0,38-8.18q17.8-8.16,26.77-21.95V295h-36.72q-37.83,0-56.9,11T1790,337.08q0,16.35,13,26.05T1837.91,372.82Z" transform="translate(0 -50.01)"/><path class="cls-2" d="M2051.72,413.7V203h-46.25V161h46.25V137.84q0-42,28-64.94T2158.23,50a186.73,186.73,0,0,1,38.12,4.21l-1.68,44.38a159.75,159.75,0,0,0-26.07-1.87q-48.76,0-48.77,41.81V161h61.67v42h-61.67V413.7Z" transform="translate(0 -50.01)"/><path class="cls-2" d="M2343.73,418.37q-64.74,0-105-34t-40.22-90.51v-7q0-37.83,17.52-67.62t49.19-46.36q31.66-16.59,70.64-16.59,61.93,0,95.72,32.94t33.77,93.19v22.9H2267.21q3.09,31.29,25.09,49.51t55.36,18.22q46.8,0,76.24-31.53l36.72,29.2q-18.23,22.65-48.63,35.15T2343.73,418.37Zm-8.13-216.53q-28,0-45.26,16.35t-22,45.55h129.78v-4.21q-2.25-28.48-18.22-43.09T2335.6,201.84Z" transform="translate(0 -50.01)"/><path class="cls-2" d="M2802.47,345q0-15.18-15-23.12t-49.75-14q-34.77-6.06-58-15.41-51-20.55-51-59.56,0-32.7,33.08-54.66t84.09-22q54.38,0,87.87,22.43t33.49,58.16H2799.1q0-16.35-14.57-27.22t-38.68-10.86q-22.44,0-36.58,8.65t-14.16,23.12q0,13.08,13.18,20.32t53.25,14.6q40.08,7.36,62.93,17.52t33.91,24.41q11.07,14.25,11.08,34.57,0,34.1-33.92,55.24t-88.85,21.14q-37.29,0-66.43-11.21t-45.41-30.84q-16.26-19.62-16.26-42.27h66.15q1.4,20.08,18.22,30.95t44.57,10.86q26.91,0,40.92-8.53T2802.47,345Z" transform="translate(0 -50.01)"/><path class="cls-2" d="M2981.52,188.53q33.34-32.24,84.37-32.24,97,0,98.38,92.27V413.7h-68.11v-163q0-26.16-13.6-37t-39.94-10.87q-40.92,0-61.1,30.37V413.7h-68.11V54.92h68.11Z" transform="translate(0 -50.01)"/><path class="cls-2" d="M3399.94,413.7q-4.49-7.24-7.84-23.6-32.52,28.27-79.61,28.27-45.69,0-74.56-21.73t-28.87-53.72q0-40.41,36-62t103-21.61h41.76V242.72q0-19.62-13.17-31.42t-40.08-11.8q-23.28,0-38.12,9.7t-14.86,24.64h-68.11q0-20.79,16.54-38.89t45-28.38q28.45-10.27,63.49-10.28,53.25,0,84.93,22.31T3458,241.31v114q0,34.11,11.5,54.43v4Zm-74.84-40.88a89.72,89.72,0,0,0,38-8.18q17.8-8.16,26.77-21.95V295h-36.72q-37.83,0-56.9,11t-19.06,31.06q0,16.35,13,26.05T3325.1,372.82Z" transform="translate(0 -50.01)"/><path class="cls-2" d="M3673.74,212.82A200.9,200.9,0,0,0,3646,211q-46.81,0-63.07,29.9V413.7h-68.11V161h65l1.68,28.27q24.66-32.94,68.39-32.94,14.57,0,24.11,3.27Z" transform="translate(0 -50.01)"/><path class="cls-2" d="M3830.65,418.37q-64.76,0-105-34t-40.23-90.51v-7q0-37.83,17.52-67.62t49.19-46.36q31.68-16.59,70.64-16.59,61.93,0,95.72,32.94t33.77,93.19v22.9H3754.12q3.09,31.29,25.09,49.51t55.36,18.22q46.8,0,76.24-31.53l36.72,29.2q-18.22,22.65-48.63,35.15T3830.65,418.37Zm-8.13-216.53q-28,0-45.27,16.35t-22,45.55H3885v-4.21q-2.25-28.48-18.22-43.09T3822.52,201.84Z" transform="translate(0 -50.01)"/></g></svg>